<?xml version="1.0" encoding="utf-8"?>
<!-- Generator: Adobe Illustrator 16.0.4, SVG Export Plug-In . SVG Version: 6.00 Build 0)  -->
<!DOCTYPE svg PUBLIC "-//W3C//DTD SVG 1.1//EN" "http://www.w3.org/Graphics/SVG/1.1/DTD/svg11.dtd">
<svg version="1.1" id="Warstwa_1" xmlns="http://www.w3.org/2000/svg" xmlns:xlink="http://www.w3.org/1999/xlink" x="0px" y="0px"
	 width="16px" height="16px" viewBox="242 242 16 16" enable-background="new 242 242 16 16" xml:space="preserve">
<g>
	<path fill="#3B2F70" d="M242,249.328c0-2.439,0-4.878,0-7.328c1.194,0,2.389,0,3.583,0c0.035,0.189,0.185,0.114,0.294,0.121
		c0.017,0.001,0.039-0.079,0.058-0.121c0.074,0,0.149,0,0.224,0c0.074,0.222,0.099,0.482,0.425,0.537
		c-0.078,0.057-0.148,0.094-0.22,0.099c-0.1,0.006-0.164,0.034-0.171,0.142c-0.008,0.117-0.02,0.233-0.024,0.35
		c-0.001,0.025,0.025,0.051,0.04,0.076c0.025-0.021,0.064-0.037,0.072-0.062c0.025-0.08,0.041-0.164,0.054-0.248
		c0.016-0.098,0.071-0.132,0.167-0.125c0.375,0.028,0.752,0.039,1.125,0.083c0.324,0.039,0.322,0.055,0.324,0.392
		c-1.602,0.001-3.204,0.001-4.807,0.002c-0.029,0.003-0.057,0.005-0.086,0.008c-0.004,0.059-0.012,0.116-0.012,0.174
		c-0.001,2.66-0.001,5.32-0.001,7.98c0,0.16-0.004,0.318-0.006,0.479c-0.009,0.004-0.017,0.007-0.025,0.011
		c0.008,0.008,0.017,0.016,0.025,0.023c0.002,0.042,0.008,0.085,0.008,0.128c0,1.523,0.001,3.048,0.002,4.572
		c0,0.041,0.003,0.082,0.006,0.133c4.656,0,9.3,0,13.96,0c0-0.08,0-0.149,0-0.219c0.002-2.824,0.002-5.649,0.003-8.475
		c0-0.069,0.005-0.138,0.008-0.207c0.098,0.003,0.167,0.042,0.171,0.149c0.02,0.391,0.04,0.782,0.055,1.172
		c0.009,0.275-0.008,0.552,0.02,0.824c0.014,0.143,0.098,0.28,0.152,0.418c0.008,0.017,0.031,0.033,0.051,0.037
		c0.268,0.054,0.334,0.259,0.361,0.506c0.059,0,0.111,0,0.164,0c0,2.345,0,4.688,0,7.04c-3.18,0-6.357,0-9.536,0
		c-0.011-0.014-0.022-0.027-0.032-0.041c-0.011,0.014-0.021,0.027-0.032,0.041c-2.134,0-4.267,0-6.4,0c0-2.134,0-4.267,0-6.4
		c0.146,0.045,0.292,0.091,0.458,0.142c0-0.074-0.014-0.122,0.002-0.155c0.06-0.119,0.14-0.228,0.192-0.349
		c0.038-0.089,0.049-0.19,0.063-0.286c0.015-0.098,0.019-0.197,0.027-0.296c0.004-0.058,0.026-0.122,0.006-0.169
		c-0.064-0.147-0.006-0.278,0.02-0.419c0.034-0.187,0.054-0.377,0.058-0.566c0.002-0.131-0.067-0.219-0.222-0.206
		C242.403,249.311,242.201,249.317,242,249.328z M248.057,256.885c0-0.004,0-0.008,0-0.012c-0.007,0.002-0.013,0.004-0.02,0.006
		c0.003,0.004,0.004,0.01,0.008,0.01C248.049,256.89,248.053,256.887,248.057,256.885z M248.284,257.58
		c-0.004-0.003-0.007-0.006-0.01-0.008c-0.003,0.006-0.006,0.013-0.009,0.02c0.004,0,0.01,0.002,0.013,0.001
		C248.281,257.59,248.281,257.585,248.284,257.58z M247.879,257.305c-0.003,0-0.008-0.004-0.009-0.004
		c-0.003,0.003-0.005,0.008-0.006,0.011c0.005,0.003,0.01,0.005,0.016,0.007C247.879,257.314,247.879,257.311,247.879,257.305z"/>
	<path fill="#4B3C88" d="M247.952,243.244c-0.002-0.337,0-0.353-0.324-0.392c-0.373-0.044-0.75-0.056-1.125-0.083
		c-0.096-0.007-0.15,0.027-0.167,0.125c-0.013,0.084-0.029,0.168-0.054,0.249c-0.008,0.025-0.047,0.042-0.072,0.062
		c-0.014-0.025-0.041-0.051-0.04-0.076c0.004-0.117,0.016-0.233,0.024-0.349c0.007-0.108,0.071-0.137,0.171-0.143
		c0.072-0.004,0.142-0.042,0.22-0.099c-0.326-0.055-0.351-0.315-0.425-0.537c3.946,0,7.893,0,11.84,0c0,0.491,0,0.981,0,1.472
		c-0.041-0.02-0.099-0.028-0.121-0.061c-0.1-0.15-0.188-0.309-0.289-0.46c-0.025-0.04-0.076-0.078-0.121-0.087
		c-0.181-0.039-0.364-0.065-0.547-0.096c-0.103-0.017-0.209-0.063-0.307-0.047c-0.262,0.043-0.525,0.135-0.738-0.153
		c-0.09,0.18-0.241,0.172-0.393,0.17c-0.139-0.002-0.277,0.001-0.414,0.012c-0.311,0.024-0.619,0.054-0.93,0.082
		c-0.209,0.02-0.404,0.013-0.484-0.234c-0.002-0.005-0.02-0.005-0.059-0.014c-0.024,0.066-0.044,0.141-0.08,0.206
		c-0.023,0.042-0.069,0.1-0.107,0.103c-0.235,0.012-0.431,0.062-0.435,0.354c-0.224,0-0.448,0-0.672,0
		c-0.021-0.128-0.047-0.255-0.063-0.383c-0.019-0.135-0.097-0.224-0.188-0.205c-0.135,0.029-0.27,0.055-0.453,0.092
		c0,0.132,0,0.314,0,0.495c-0.096,0-0.191,0.001-0.288,0.001c-0.001-0.091,0.001-0.182-0.003-0.272
		c-0.006-0.145-0.064-0.218-0.229-0.207c-0.455,0.03-0.91,0.045-1.364,0.068c-0.159,0.008-0.318,0.02-0.477,0.034
		c-0.102,0.009-0.174,0.057-0.166,0.172c0.009,0.121-0.062,0.172-0.161,0.204C248.593,243.244,248.272,243.244,247.952,243.244z"/>
	<path fill="#3B2F70" d="M252.975,243.245c0.005-0.292,0.2-0.342,0.436-0.354c0.038-0.002,0.084-0.06,0.107-0.103
		c0.035-0.065,0.056-0.139,0.08-0.206c0.039,0.009,0.057,0.009,0.059,0.014c0.08,0.248,0.275,0.254,0.484,0.234
		c0.311-0.028,0.619-0.058,0.93-0.082c0.137-0.011,0.275-0.014,0.414-0.012c0.151,0.001,0.303,0.01,0.393-0.17
		c0.213,0.288,0.475,0.197,0.738,0.153c0.098-0.016,0.204,0.03,0.307,0.047c0.183,0.031,0.366,0.058,0.547,0.096
		c0.045,0.009,0.096,0.048,0.121,0.087c0.101,0.151,0.189,0.31,0.289,0.46c0.022,0.033,0.08,0.042,0.121,0.061
		c0,1.195,0,2.39,0,3.584c-0.219,0.017-0.436,0.037-0.653,0.052c-0.108,0.008-0.216,0.008-0.323,0.012
		c-0.002-0.069-0.006-0.138-0.006-0.207c-0.002-1.211-0.002-2.423-0.003-3.635c0.017-0.006,0.034-0.012,0.05-0.019
		c-0.029-0.005-0.059-0.009-0.088-0.013c-0.271,0.001-0.543,0.003-0.813,0.003C255.101,243.249,254.038,243.247,252.975,243.245z"/>
	<path fill="#4B3C88" d="M257.024,247.12c0.107-0.004,0.215-0.004,0.323-0.012c0.218-0.015,0.435-0.035,0.653-0.052
		c0,1.301,0,2.603,0,3.904c-0.053,0-0.105,0-0.164,0c-0.027-0.247-0.094-0.452-0.361-0.506c-0.02-0.004-0.043-0.02-0.051-0.037
		c-0.055-0.138-0.139-0.275-0.152-0.418c-0.027-0.272-0.011-0.549-0.02-0.824c-0.015-0.391-0.035-0.782-0.055-1.172
		c-0.004-0.107-0.073-0.146-0.171-0.148C257.026,247.609,257.026,247.365,257.024,247.12z"/>
	<path fill="#4B3C88" d="M242,249.328c0.201-0.011,0.403-0.017,0.604-0.034c0.155-0.013,0.224,0.075,0.222,0.206
		c-0.004,0.189-0.023,0.38-0.058,0.566c-0.026,0.141-0.083,0.271-0.02,0.419c0.02,0.047-0.002,0.112-0.006,0.169
		c-0.008,0.099-0.012,0.198-0.027,0.296c-0.014,0.096-0.025,0.197-0.063,0.286c-0.052,0.121-0.133,0.23-0.192,0.349
		c-0.017,0.033-0.002,0.081-0.002,0.155c-0.166-0.051-0.312-0.097-0.458-0.142C242,250.843,242,250.085,242,249.328z"/>
	<path fill="#4B3C88" d="M245.936,242c-0.02,0.042-0.041,0.122-0.058,0.121c-0.109-0.006-0.259,0.068-0.294-0.121
		C245.701,242,245.819,242,245.936,242z"/>
	<path fill="#4B3C88" d="M248.4,258c0.01-0.014,0.021-0.027,0.032-0.041c0.01,0.014,0.021,0.027,0.032,0.041
		C248.442,258,248.421,258,248.4,258z"/>
	<path fill="#FDFEFD" d="M257.024,247.12c0.002,0.245,0.002,0.489,0.003,0.734c-0.003,0.068-0.008,0.137-0.008,0.207
		c-0.001,2.825-0.001,5.65-0.003,8.475c0,0.069,0,0.139,0,0.219c-4.66,0-9.305,0-13.96,0c-0.002-0.051-0.006-0.092-0.006-0.133
		c-0.001-1.524-0.002-3.049-0.002-4.572c0-0.043-0.005-0.086-0.008-0.128c0-0.012,0-0.022,0-0.034
		c0.002-0.16,0.006-0.318,0.006-0.479c0-2.66,0-5.32,0.001-7.979c0-0.059,0.008-0.116,0.012-0.175
		c0.029-0.002,0.057-0.005,0.086-0.008c1.603,0,3.205-0.001,4.807-0.002c0.32,0,0.641,0,0.961,0c0.799,0,1.599,0,2.399,0.001
		c0.097,0,0.192,0,0.288-0.001c0.234,0,0.47,0,0.704,0c0.224,0,0.448,0,0.671,0c1.063,0.002,2.126,0.004,3.188,0.005
		c0.271,0,0.542-0.002,0.813-0.003c0.012,0.01,0.025,0.021,0.038,0.031c0.001,1.212,0.001,2.424,0.003,3.635
		C257.018,246.982,257.022,247.051,257.024,247.12z M243.739,243.926c0,4.078,0,8.144,0,12.205c4.205,0,8.398,0,12.589,0
		c0-4.074,0-8.136,0-12.205C252.129,243.926,247.939,243.926,243.739,243.926z"/>
	<path fill="#4B3C88" d="M248.057,256.885c-0.004,0.002-0.008,0.005-0.012,0.004c-0.003,0-0.005-0.006-0.008-0.01
		c0.006-0.002,0.013-0.004,0.02-0.006C248.057,256.877,248.057,256.881,248.057,256.885z"/>
	<path fill="#4B3C88" d="M248.284,257.58c-0.002,0.005-0.003,0.01-0.006,0.013c-0.003,0.001-0.009-0.001-0.013-0.001
		c0.003-0.007,0.006-0.014,0.009-0.02C248.277,257.574,248.28,257.577,248.284,257.58z"/>
	<path fill="#4B3C88" d="M243.145,243.246c-0.029,0.003-0.058,0.006-0.086,0.008C243.088,243.251,243.116,243.249,243.145,243.246z"
		/>
	<path fill="#4B3C88" d="M247.879,257.305c0,0.006,0,0.01,0,0.014c-0.005-0.002-0.011-0.004-0.016-0.007
		c0.002-0.003,0.003-0.008,0.006-0.011C247.871,257.301,247.876,257.305,247.879,257.305z"/>
	<path fill="#4B3C88" d="M243.039,251.887c0,0.012,0,0.022,0,0.034c-0.008-0.008-0.017-0.016-0.025-0.023
		C243.023,251.894,243.031,251.891,243.039,251.887z"/>
	<path fill="#3B2F70" d="M251.312,243.245c-0.8,0-1.6-0.001-2.399-0.001c0.098-0.032,0.169-0.083,0.161-0.204
		c-0.008-0.115,0.063-0.163,0.166-0.172c0.159-0.015,0.318-0.026,0.477-0.034c0.455-0.023,0.91-0.038,1.365-0.068
		c0.164-0.011,0.223,0.062,0.228,0.207C251.313,243.063,251.311,243.154,251.312,243.245z"/>
	<path fill="#3B2F70" d="M252.304,243.244c-0.234,0-0.47,0-0.704,0c0-0.181,0-0.363,0-0.495c0.184-0.038,0.318-0.063,0.453-0.092
		c0.091-0.02,0.169,0.069,0.188,0.205C252.257,242.989,252.283,243.116,252.304,243.244z"/>
	<path fill="#4B3C88" d="M257.015,243.278c-0.013-0.01-0.026-0.021-0.038-0.031c0.029,0.004,0.059,0.008,0.088,0.013
		C257.049,243.266,257.031,243.272,257.015,243.278z"/>
	<path fill="#4B3C88" d="M243.739,243.926c4.201,0,8.391,0,12.589,0c0,4.068,0,8.13,0,12.205c-4.19,0-8.384,0-12.589,0
		C243.739,252.07,243.739,248.004,243.739,243.926z"/>
</g>
<text transform="matrix(1 0 0 1 244.8 253.4561)" fill="#FFFFFF" font-family="'ArialMT'" font-size="9.6">MI</text>
</svg>
